<svg width="24" height="24" viewBox="0 0 24 24" fill="none" xmlns="http://www.w3.org/2000/svg">
<path fill-rule="evenodd" clip-rule="evenodd" d="M6.89351 4.29713C6.56935 4.4429 6.42472 4.82385 6.57049 5.14802L8.81389 10.1371C8.95965 10.4613 9.34061 10.6059 9.66477 10.4602C9.98894 10.3144 10.1336 9.93344 9.9878 9.60928L7.7444 4.62016C7.59863 4.29599 7.21768 4.15137 6.89351 4.29713Z" fill="#125873"/>
<path fill-rule="evenodd" clip-rule="evenodd" d="M13.5808 4.28013C13.2608 4.43484 13.1268 4.81967 13.2815 5.13966L15.6626 10.0645C15.8173 10.3845 16.2022 10.5185 16.5221 10.3638C16.8421 10.2091 16.9761 9.82427 16.8214 9.50427L14.4403 4.5794C14.2856 4.2594 13.9008 4.12542 13.5808 4.28013Z" fill="#125873"/>
<path d="M22.3086 12.6888C22.3086 10.3074 20.3781 8.37695 17.9967 8.37695H7.31354C4.93216 8.37695 3.00166 10.3074 3.00166 12.6888C3.00166 15.0702 4.93216 17.0007 7.31354 17.0007H17.9967C20.3781 17.0007 22.3086 15.0702 22.3086 12.6888Z" fill="#125873"/>
<path d="M21.0195 12.6888C21.0195 11.0183 19.6653 9.66406 17.9948 9.66406H7.31161C5.64108 9.66406 4.28686 11.0183 4.28686 12.6888C4.28686 14.3593 5.64108 15.7136 7.31161 15.7136H17.9948C19.6653 15.7136 21.0195 14.3593 21.0195 12.6888Z" fill="#CAEEE1"/>
<path d="M14.2009 12.5597C14.2009 13.5904 15.0365 14.426 16.0673 14.426C17.098 14.426 17.9336 13.5904 17.9336 12.5597C17.9336 11.5289 17.098 10.6934 16.0673 10.6934C15.0365 10.6934 14.2009 11.5289 14.2009 12.5597Z" fill="#125873"/>
<path d="M7.2478 12.5597C7.2478 13.5904 8.08338 14.426 9.11413 14.426C10.1449 14.426 10.9805 13.5904 10.9805 12.5597C10.9805 11.5289 10.1449 10.6934 9.11413 10.6934C8.08338 10.6934 7.2478 11.5289 7.2478 12.5597Z" fill="#125873"/>
</svg>
